%TF.GenerationSoftware,KiCad,Pcbnew,10.0.5*%
%TF.CreationDate,2026-08-27T00:46:41-04:00*%
%TF.ProjectId,pwmpcb,70776d70-6362-42e6-9b69-6361645f7063,rev?*%
%TF.SameCoordinates,Original*%
%TF.FileFunction,Copper,L2,Bot*%
%TF.FilePolarity,Positive*%
%FSLAX46Y46*%
G04 Gerber Fmt 4.6, Leading zero omitted, Abs format (unit mm)*
G04 Created by KiCad (PCBNEW 10.0.5) date 2026-08-27 00:46:41*
%MOMM*%
%LPD*%
G01*
G04 APERTURE LIST*
G04 Aperture macros list*
%AMRoundRect*
0 Rectangle with rounded corners*
0 $1 Rounding radius*
0 $2 $3 $4 $5 $6 $7 $8 $9 X,Y pos of 4 corners*
0 Add a 4 corners polygon primitive as box body*
4,1,4,$2,$3,$4,$5,$6,$7,$8,$9,$2,$3,0*
0 Add four circle primitives for the rounded corners*
1,1,$1+$1,$2,$3*
1,1,$1+$1,$4,$5*
1,1,$1+$1,$6,$7*
1,1,$1+$1,$8,$9*
0 Add four rect primitives between the rounded corners*
20,1,$1+$1,$2,$3,$4,$5,0*
20,1,$1+$1,$4,$5,$6,$7,0*
20,1,$1+$1,$6,$7,$8,$9,0*
20,1,$1+$1,$8,$9,$2,$3,0*%
G04 Aperture macros list end*
%TA.AperFunction,ComponentPad*%
%ADD10RoundRect,0.250000X0.550000X-0.550000X0.550000X0.550000X-0.550000X0.550000X-0.550000X-0.550000X0*%
%TD*%
%TA.AperFunction,ComponentPad*%
%ADD11C,1.600000*%
%TD*%
%TA.AperFunction,ComponentPad*%
%ADD12RoundRect,0.250000X-0.550000X-0.550000X0.550000X-0.550000X0.550000X0.550000X-0.550000X0.550000X0*%
%TD*%
%TA.AperFunction,ComponentPad*%
%ADD13C,2.340000*%
%TD*%
%TA.AperFunction,ComponentPad*%
%ADD14R,3.000000X3.000000*%
%TD*%
%TA.AperFunction,ComponentPad*%
%ADD15C,3.000000*%
%TD*%
%TA.AperFunction,ViaPad*%
%ADD16C,0.600000*%
%TD*%
%TA.AperFunction,Conductor*%
%ADD17C,0.200000*%
%TD*%
G04 APERTURE END LIST*
D10*
%TO.P,C2,1*%
%TO.N,Net-(U1-THRES)*%
X76000000Y-104000000D03*
D11*
%TO.P,C2,2*%
%TO.N,GND*%
X76000000Y-102000000D03*
%TD*%
D12*
%TO.P,C1,1*%
%TO.N,Net-(U1-CONT)*%
X102000000Y-110000000D03*
D11*
%TO.P,C1,2*%
%TO.N,GND*%
X104000000Y-110000000D03*
%TD*%
D12*
%TO.P,U1,1,GND_1*%
%TO.N,GND*%
X85380000Y-103000000D03*
D11*
%TO.P,U1,2,TRIG_2*%
%TO.N,Net-(U1-THRES)*%
X85380000Y-105540000D03*
%TO.P,U1,3,OUT_3*%
%TO.N,Net-(U1-OUT)*%
X85380000Y-108080000D03*
%TO.P,U1,4,~{RST}_4*%
%TO.N,Net-(BT1-+)*%
X85380000Y-110620000D03*
%TO.P,U1,5,CONT_5*%
%TO.N,Net-(U1-CONT)*%
X93000000Y-110620000D03*
%TO.P,U1,6,THRES_6*%
%TO.N,Net-(U1-THRES)*%
X93000000Y-108080000D03*
%TO.P,U1,7,DISCH_7*%
%TO.N,Net-(U1-DISCH)*%
X93000000Y-105540000D03*
%TO.P,U1,8,VCC_8*%
%TO.N,Net-(BT1-+)*%
X93000000Y-103000000D03*
%TD*%
D13*
%TO.P,R4,1,1_1*%
%TO.N,Net-(U1-THRES)*%
X109500000Y-102000000D03*
%TO.P,R4,2,2_2*%
%TO.N,Net-(U1-DISCH)*%
X112000000Y-107000000D03*
%TO.P,R4,3,3_3*%
%TO.N,unconnected-(R4-Pad3)*%
X109500000Y-112000000D03*
%TD*%
D14*
%TO.P,BT1,1,+_1*%
%TO.N,Net-(BT1-+)*%
X48500000Y-114000000D03*
D15*
%TO.P,BT1,2,-_2*%
%TO.N,GND*%
X68990000Y-114000000D03*
%TD*%
D16*
%TO.N,Net-(Q1-G)*%
X85500000Y-120400000D03*
%TO.N,Net-(U1-OUT)*%
X85000000Y-115000000D03*
X84000000Y-113400000D03*
%TO.N,Net-(U1-CONT)*%
X97325735Y-111825735D03*
%TO.N,Net-(U1-THRES)*%
X79000000Y-106000000D03*
%TO.N,Net-(Q1-G)*%
X94000000Y-123500000D03*
%TO.N,Net-(U1-THRES)*%
X100500000Y-104940000D03*
X98500000Y-108000000D03*
%TO.N,Net-(BT1-+)*%
X79000000Y-100000000D03*
X83600000Y-110050000D03*
%TD*%
%TO.N,Net-(Q1-G)*%
D17*
X85500000Y-120500000D02*
X85500000Y-124500000D01*
%TO.N,Net-(U1-OUT)*%
X84000000Y-113400000D02*
X84000000Y-114000000D01*
X84000000Y-114000000D02*
X85000000Y-115000000D01*
%TO.N,Net-(U1-CONT)*%
X99151470Y-110000000D02*
X102000000Y-110000000D01*
X97325735Y-111825735D02*
X99151470Y-110000000D01*
%TO.N,Net-(U1-THRES)*%
X77000000Y-104000000D02*
X76000000Y-104000000D01*
X79000000Y-106000000D02*
X77000000Y-104000000D01*
X98500000Y-107000000D02*
X98500000Y-108000000D01*
X100500000Y-105000000D02*
X98500000Y-107000000D01*
%TO.N,Net-(BT1-+)*%
X83600000Y-104600000D02*
X79000000Y-100000000D01*
X83600000Y-110050000D02*
X83600000Y-104600000D01*
%TO.N,Net-(Q1-G)*%
X92000000Y-125500000D02*
X94000000Y-123500000D01*
X86500000Y-125500000D02*
X92000000Y-125500000D01*
X85500000Y-124500000D02*
X86500000Y-125500000D01*
X85500000Y-120400000D02*
X85500000Y-120500000D01*
%TO.N,Net-(U1-THRES)*%
X100500000Y-104940000D02*
X100500000Y-105000000D01*
%TD*%
M02*
